<svg width="2000px" height="1812px"
 viewBox="0.00 0.00 426.29 385.77" xmlns="http://www.w3.org/2000/svg" xmlns:xlink="http://www.w3.org/1999/xlink">
<g id="graph0" class="graph" transform="scale(1.0 1.0) rotate(0) translate(4 381.77)">
<title>ContextMapGraph</title>
<polygon fill="white" stroke="transparent" points="-4,4 -4,-381.77 422.29,-381.77 422.29,4 -4,4"/>
<!-- CustomerManagementContext -->
<g id="node1" class="node">
<title>CustomerManagementContext</title>
<polygon fill="none" stroke="black" stroke-width="2" points="4.99,-192.95 2.83,-190.12 1.25,-187.3 0.26,-184.49 -0.14,-181.7 0.05,-178.95 0.85,-176.24 2.25,-173.58 4.24,-170.99 6.84,-168.47 10.03,-166.04 13.8,-163.69 18.16,-161.45 23.08,-159.31 28.55,-157.28 34.56,-155.37 41.09,-153.58 48.13,-151.91 55.65,-150.38 63.62,-148.98 72.03,-147.71 80.86,-146.58 90.06,-145.58 99.62,-144.72 109.5,-143.99 119.67,-143.4 130.11,-142.94 140.77,-142.61 151.63,-142.4 162.64,-142.32 173.79,-142.36 185.02,-142.51 196.31,-142.77 207.61,-143.14 218.9,-143.62 230.14,-144.19 241.3,-144.85 252.34,-145.6 263.22,-146.44 273.92,-147.35 284.41,-148.34 294.64,-149.4 304.6,-150.53 314.26,-151.71 323.59,-152.96 332.55,-154.26 341.14,-155.62 349.32,-157.02 357.08,-158.47 364.39,-159.96 371.25,-161.5 377.62,-163.08 383.5,-164.69 388.88,-166.34 393.74,-168.03 398.07,-169.75 401.87,-171.5 405.13,-173.29 407.85,-175.1 410.02,-176.95 411.64,-178.82 412.72,-180.72 413.24,-182.65 413.23,-184.6 412.67,-186.57 411.58,-188.57 409.96,-190.58 407.82,-192.6 405.17,-194.64 402.02,-196.69 398.39,-198.74 394.27,-200.8 389.68,-202.85 384.65,-204.89 379.18,-206.92 373.28,-208.93 366.98,-210.91 360.28,-212.87 353.22,-214.78 345.79,-216.66 338.03,-218.48 329.95,-220.24 321.57,-221.94 312.91,-223.56 303.99,-225.1 294.82,-226.55 285.44,-227.91 275.86,-229.16 266.11,-230.3 256.2,-231.33 246.15,-232.22 236,-232.99 225.77,-233.62 215.47,-234.11 205.14,-234.46 194.8,-234.65 184.46,-234.68 174.17,-234.56 163.93,-234.28 153.79,-233.84 143.75,-233.23 133.86,-232.46 124.13,-231.53 114.59,-230.44 105.26,-229.2 96.18,-227.79 87.36,-226.25 78.84,-224.55 70.63,-222.72 62.76,-220.75 55.26,-218.66 48.14,-216.46 41.44,-214.14 35.17,-211.73 29.35,-209.23 24,-206.65 19.15,-204 14.81,-201.3 10.99,-198.54 7.71,-195.76 4.99,-192.95"/>
<text text-anchor="middle" x="209.14" y="-182.79" font-family="sans-serif" font-size="16.00">CustomerManagementContext</text>
</g>
<!-- PolicyManagementContext -->
<g id="node2" class="node">
<title>PolicyManagementContext</title>
<polygon fill="none" stroke="black" stroke-width="2" points="179.21,-1.15 191.05,-0.64 202.9,-0.26 214.71,0 226.44,0.14 238.03,0.15 249.45,0.02 260.65,-0.23 271.58,-0.61 282.22,-1.12 292.52,-1.76 302.44,-2.52 311.96,-3.41 321.04,-4.43 329.67,-5.56 337.81,-6.81 345.44,-8.17 352.55,-9.65 359.12,-11.23 365.15,-12.9 370.61,-14.68 375.51,-16.54 379.85,-18.49 383.62,-20.52 386.83,-22.61 389.49,-24.78 391.59,-27 393.15,-29.27 394.19,-31.58 394.71,-33.94 394.72,-36.32 394.26,-38.72 393.32,-41.13 391.94,-43.55 390.13,-45.97 387.9,-48.39 385.28,-50.78 382.29,-53.15 378.95,-55.49 375.27,-57.79 371.27,-60.05 366.97,-62.25 362.39,-64.4 357.54,-66.48 352.44,-68.5 347.1,-70.43 341.53,-72.29 335.76,-74.06 329.78,-75.75 323.6,-77.33 317.25,-78.83 310.71,-80.21 304.01,-81.5 297.15,-82.68 290.12,-83.74 282.95,-84.7 275.63,-85.54 268.17,-86.27 260.57,-86.88 252.83,-87.38 244.97,-87.76 236.99,-88.02 228.89,-88.17 220.68,-88.2 212.37,-88.11 203.97,-87.92 195.48,-87.61 186.92,-87.18 178.3,-86.65 169.64,-86.02 160.94,-85.28 152.24,-84.43 143.54,-83.49 134.87,-82.45 126.24,-81.32 117.69,-80.09 109.24,-78.78 100.91,-77.39 92.73,-75.91 84.74,-74.36 76.95,-72.73 69.41,-71.04 62.14,-69.28 55.18,-67.46 48.56,-65.58 42.3,-63.65 36.45,-61.67 31.03,-59.64 26.07,-57.58 21.61,-55.48 17.67,-53.35 14.28,-51.2 11.46,-49.02 9.24,-46.83 7.64,-44.63 6.67,-42.43 6.36,-40.22 6.71,-38.02 7.74,-35.83 9.45,-33.65 11.84,-31.5 14.92,-29.37 18.69,-27.28 23.12,-25.22 28.22,-23.21 33.97,-21.24 40.36,-19.33 47.36,-17.48 54.94,-15.7 63.09,-13.98 71.76,-12.34 80.93,-10.78 90.57,-9.31 100.62,-7.93 111.06,-6.64 121.83,-5.46 132.9,-4.37 144.22,-3.4 155.75,-2.53 167.42,-1.79 179.21,-1.15"/>
<text text-anchor="middle" x="209.14" y="-40.85" font-family="sans-serif" font-size="16.00">PolicyManagementContext</text>
</g>
<!-- CustomerManagementContext&#45;&gt;PolicyManagementContext -->
<g id="edge1" class="edge">
<title>CustomerManagementContext&#45;&gt;PolicyManagementContext</title>
<path fill="none" stroke="black" stroke-width="2" d="M209.14,-142.84C209.14,-125.48 209.14,-105.47 209.14,-88.13"/>
<text text-anchor="middle" x="284.64" y="-110.69" font-family="sans-serif" font-size="12.00"> &#160;&#160;&#160;&#160;&#160;&#160;&#160;&#160;&#160;&#160;&#160;&#160;&#160;&#160;&#160;&#160;&#160;&#160;&#160;&#160;&#160;&#160;&#160;&#160;&#160;&#160;&#160;&#160;&#160;&#160;&#160;&#160;&#160;&#160;&#160;&#160;&#160;&#160;&#160;</text>
<polygon fill="white" stroke="transparent" points="190.14,-78.13 190.14,-97.13 206.14,-97.13 206.14,-78.13 190.14,-78.13"/>
<polyline fill="none" stroke="black" points="206.14,-78.13 206.14,-97.13 "/>
<text text-anchor="start" x="193.14" y="-84.53" font-family="sans-serif" font-size="12.00">D</text>
<polygon fill="white" stroke="transparent" points="206.14,-78.13 206.14,-97.13 228.14,-97.13 228.14,-78.13 206.14,-78.13"/>
<polygon fill="none" stroke="black" points="206.14,-78.13 206.14,-97.13 228.14,-97.13 228.14,-78.13 206.14,-78.13"/>
<text text-anchor="start" x="209.14" y="-84.53" font-family="sans-serif" font-size="12.00">CF</text>
<polygon fill="white" stroke="transparent" points="185.14,-132.84 185.14,-151.84 201.14,-151.84 201.14,-132.84 185.14,-132.84"/>
<polyline fill="none" stroke="black" points="201.14,-132.84 201.14,-151.84 "/>
<text text-anchor="start" x="188.14" y="-139.24" font-family="sans-serif" font-size="12.00">U</text>
<polygon fill="white" stroke="transparent" points="201.14,-132.84 201.14,-151.84 234.14,-151.84 234.14,-132.84 201.14,-132.84"/>
<polygon fill="none" stroke="black" points="201.14,-132.84 201.14,-151.84 234.14,-151.84 234.14,-132.84 201.14,-132.84"/>
<text text-anchor="start" x="204.14" y="-139.24" font-family="sans-serif" font-size="12.00">OHS</text>
</g>
<!-- PrintingContext -->
<g id="node3" class="node">
<title>PrintingContext</title>
<polygon fill="none" stroke="black" stroke-width="2" points="266.46,-369.45 259.58,-370.85 252.58,-372.13 245.49,-373.29 238.35,-374.33 231.17,-375.23 223.98,-376 216.82,-376.64 209.7,-377.13 202.66,-377.47 195.71,-377.67 188.88,-377.72 182.18,-377.62 175.65,-377.37 169.3,-376.97 163.14,-376.43 157.2,-375.74 151.48,-374.9 146,-373.93 140.77,-372.81 135.8,-371.57 131.1,-370.19 126.68,-368.69 122.53,-367.08 118.67,-365.35 115.1,-363.52 111.82,-361.6 108.83,-359.58 106.12,-357.48 103.7,-355.31 101.57,-353.07 99.72,-350.77 98.14,-348.43 96.84,-346.04 95.81,-343.62 95.04,-341.18 94.53,-338.72 94.27,-336.26 94.26,-333.8 94.49,-331.34 94.95,-328.91 95.65,-326.5 96.58,-324.12 97.72,-321.79 99.09,-319.5 100.67,-317.26 102.46,-315.08 104.46,-312.96 106.67,-310.91 109.08,-308.94 111.69,-307.04 114.5,-305.23 117.51,-303.5 120.71,-301.86 124.11,-300.31 127.71,-298.85 131.49,-297.49 135.47,-296.23 139.63,-295.06 143.98,-293.99 148.51,-293.03 153.22,-292.16 158.11,-291.39 163.17,-290.73 168.4,-290.16 173.78,-289.7 179.32,-289.33 185,-289.06 190.81,-288.89 196.74,-288.82 202.79,-288.84 208.94,-288.96 215.17,-289.17 221.47,-289.48 227.82,-289.88 234.21,-290.37 240.62,-290.94 247.02,-291.61 253.41,-292.37 259.74,-293.21 266.02,-294.13 272.2,-295.14 278.27,-296.24 284.21,-297.41 289.99,-298.67 295.59,-300 300.98,-301.41 306.14,-302.89 311.06,-304.45 315.69,-306.08 320.03,-307.78 324.05,-309.54 327.74,-311.37 331.06,-313.26 334.02,-315.21 336.58,-317.21 338.74,-319.26 340.49,-321.36 341.8,-323.5 342.68,-325.68 343.12,-327.9 343.11,-330.14 342.64,-332.4 341.73,-334.68 340.36,-336.97 338.55,-339.27 336.29,-341.56 333.61,-343.85 330.5,-346.12 326.98,-348.36 323.07,-350.58 318.77,-352.76 314.11,-354.89 309.12,-356.97 303.79,-358.99 298.18,-360.95 292.28,-362.82 286.14,-364.62 279.77,-366.33 273.2,-367.94 266.46,-369.45"/>
<text text-anchor="middle" x="209.14" y="-327.03" font-family="sans-serif" font-size="16.00">PrintingContext</text>
</g>
<!-- PrintingContext&#45;&gt;CustomerManagementContext -->
<g id="edge2" class="edge">
<title>PrintingContext&#45;&gt;CustomerManagementContext</title>
<path fill="none" stroke="black" stroke-width="2" d="M209.14,-288.69C209.14,-271.7 209.14,-251.93 209.14,-234.39"/>
<text text-anchor="middle" x="284.64" y="-256.29" font-family="sans-serif" font-size="12.00"> &#160;&#160;&#160;&#160;&#160;&#160;&#160;&#160;&#160;&#160;&#160;&#160;&#160;&#160;&#160;&#160;&#160;&#160;&#160;&#160;&#160;&#160;&#160;&#160;&#160;&#160;&#160;&#160;&#160;&#160;&#160;&#160;&#160;&#160;&#160;&#160;&#160;&#160;&#160;</text>
<polygon fill="white" stroke="transparent" points="186.14,-224.39 186.14,-243.39 202.14,-243.39 202.14,-224.39 186.14,-224.39"/>
<polyline fill="none" stroke="black" points="202.14,-224.39 202.14,-243.39 "/>
<text text-anchor="start" x="189.14" y="-230.79" font-family="sans-serif" font-size="12.00">D</text>
<polygon fill="white" stroke="transparent" points="202.14,-224.39 202.14,-243.39 232.14,-243.39 232.14,-224.39 202.14,-224.39"/>
<polygon fill="none" stroke="black" points="202.14,-224.39 202.14,-243.39 232.14,-243.39 232.14,-224.39 202.14,-224.39"/>
<text text-anchor="start" x="205.14" y="-230.79" font-family="sans-serif" font-size="12.00">ACL</text>
<polygon fill="white" stroke="transparent" points="185.14,-278.69 185.14,-297.69 201.14,-297.69 201.14,-278.69 185.14,-278.69"/>
<polyline fill="none" stroke="black" points="201.14,-278.69 201.14,-297.69 "/>
<text text-anchor="start" x="188.14" y="-285.09" font-family="sans-serif" font-size="12.00">U</text>
<polygon fill="white" stroke="transparent" points="201.14,-278.69 201.14,-297.69 234.14,-297.69 234.14,-278.69 201.14,-278.69"/>
<polygon fill="none" stroke="black" points="201.14,-278.69 201.14,-297.69 234.14,-297.69 234.14,-278.69 201.14,-278.69"/>
<text text-anchor="start" x="204.14" y="-285.09" font-family="sans-serif" font-size="12.00">OHS</text>
</g>
</g>
</svg>
